<svg xmlns:xlink="http://www.w3.org/1999/xlink" width="251" height="30" fill="none" xmlns="http://www.w3.org/2000/svg"><path d="M12.568 7.347C11.316 6.622 9.89 6.26 8.288 6.26c-1.56 0-2.962.358-4.204 1.073a7.991 7.991 0 0 0-2.958 2.95C.396 11.536.02 12.936 0 14.486v13.917c0 .398.115.71.345.94.229.227.545.341.946.341.381 0 .686-.114.915-.342.23-.229.345-.541.345-.939v-8.524c.661.894 1.522 1.615 2.582 2.16 1.06.547 2.242.82 3.543.82 1.522 0 2.878-.361 4.07-1.088a7.953 7.953 0 0 0 2.838-2.965c.7-1.252 1.05-2.662 1.05-4.232 0-1.589-.366-3.009-1.097-4.26a8.036 8.036 0 0 0-2.97-2.966Zm.84 10.296a5.675 5.675 0 0 1-2.102 2.16c-.89.527-1.896.79-3.017.79-1.102 0-2.093-.263-2.973-.79a5.623 5.623 0 0 1-2.073-2.16c-.5-.913-.75-1.937-.75-3.07 0-1.152.25-2.184.75-3.099a5.555 5.555 0 0 1 2.088-2.16c.89-.525 1.886-.79 2.988-.79 1.12 0 2.122.268 3.002.805a5.877 5.877 0 0 1 2.088 2.16c.51.905.765 1.932.765 3.084.001 1.134-.254 2.157-.765 3.07ZM29.7 7.9c.14-.517-.056-.925-.585-1.223-.53-.298-1.306-.446-2.326-.446-1.161 0-2.228.278-3.2.834a6.453 6.453 0 0 0-1.905 1.653V7.66c0-.398-.106-.706-.315-.925-.21-.217-.516-.327-.915-.327-.401 0-.711.11-.932.327-.221.22-.33.527-.33.925v13.797c0 .398.11.706.33.925.22.22.53.327.932.327.4 0 .705-.11.915-.327.21-.218.315-.527.315-.925v-8.85c0-.914.27-1.7.81-2.355.542-.656 1.267-1.128 2.177-1.416.91-.288 1.958-.361 3.138-.224.32.04.605.059.856.059.25 0 .47-.059.661-.178.19-.118.315-.316.375-.594Zm10.753 14.424c1.02-.358 1.861-.815 2.523-1.371.28-.218.415-.476.405-.776-.01-.298-.165-.576-.465-.834-.201-.179-.455-.264-.765-.254-.31.01-.585.105-.826.283-.42.359-.986.656-1.697.894a6.526 6.526 0 0 1-2.087.358c-1.182 0-2.228-.259-3.138-.776a5.612 5.612 0 0 1-2.147-2.145 5.935 5.935 0 0 1-.734-2.294h11.905c.34 0 .62-.105.841-.313.22-.21.33-.48.33-.82 0-1.55-.305-2.93-.915-4.143-.612-1.21-1.482-2.16-2.612-2.845-1.131-.686-2.458-1.028-3.979-1.028-1.561 0-2.938.358-4.128 1.073a7.636 7.636 0 0 0-2.809 2.936c-.68 1.242-1.02 2.677-1.02 4.307 0 1.608.361 3.04 1.082 4.292a7.711 7.711 0 0 0 2.972 2.936c1.262.705 2.713 1.058 4.355 1.058.915-.001 1.886-.181 2.909-.538ZM34.1 9.27c.851-.517 1.847-.776 2.988-.776 1.082 0 2.012.249 2.793.745.782.497 1.382 1.183 1.803 2.057.301.628.488 1.315.563 2.057H31.563c.104-.69.298-1.332.587-1.923a5.026 5.026 0 0 1 1.95-2.16Zm23.843 11.28c.53-.706.796-1.526.796-2.46 0-.755-.184-1.44-.555-2.057-.371-.615-.991-1.157-1.862-1.625-.87-.466-2.058-.83-3.558-1.088-1.102-.198-1.948-.422-2.538-.671-.59-.249-1-.532-1.231-.85-.231-.317-.345-.695-.345-1.132 0-.634.32-1.157.961-1.564.64-.407 1.48-.61 2.523-.61.821 0 1.552.124 2.191.373a4.63 4.63 0 0 1 1.712 1.176c.24.259.536.418.885.476.35.06.657 0 .915-.178.3-.178.465-.422.495-.73.03-.307-.066-.6-.285-.878-.6-.755-1.392-1.357-2.373-1.804-.981-.446-2.142-.67-3.484-.67-1.062 0-2.048.168-2.958.507-.912.338-1.647.844-2.208 1.52-.56.676-.84 1.52-.84 2.533 0 1.113.464 2.067 1.396 2.86.931.795 2.407 1.362 4.429 1.699 1.561.258 2.667.617 3.317 1.073.65.457.976 1.023.976 1.699-.02.695-.356 1.276-1.005 1.742-.652.467-1.667.7-3.05.7-.94 0-1.801-.153-2.581-.46-.78-.308-1.392-.72-1.832-1.238a1.299 1.299 0 0 0-.826-.417c-.33-.04-.657.059-.977.298-.28.22-.44.497-.48.834-.039.34.06.637.3.894.702.756 1.638 1.337 2.809 1.742 1.17.408 2.378.61 3.62.61 1.32 0 2.46-.209 3.422-.626.965-.412 1.71-.974 2.241-1.679Zm14.205 0c.53-.706.796-1.526.796-2.46 0-.755-.184-1.44-.555-2.057-.371-.615-.991-1.157-1.862-1.625-.87-.466-2.058-.83-3.558-1.088-1.102-.198-1.947-.422-2.538-.671-.59-.249-1-.532-1.231-.85-.231-.317-.345-.695-.345-1.132 0-.634.32-1.157.961-1.564.64-.407 1.48-.61 2.523-.61.821 0 1.552.124 2.191.373a4.63 4.63 0 0 1 1.712 1.176c.24.259.536.418.885.476.35.06.657 0 .916-.178.3-.178.464-.422.494-.73.03-.307-.066-.6-.285-.878-.6-.755-1.392-1.357-2.373-1.804-.98-.446-2.142-.67-3.484-.67-1.062 0-2.048.168-2.958.507-.912.338-1.647.844-2.208 1.52-.56.676-.84 1.52-.84 2.533 0 1.113.464 2.067 1.396 2.86.931.795 2.407 1.362 4.429 1.699 1.561.258 2.668.617 3.317 1.073.65.457.976 1.023.976 1.699-.02.695-.356 1.276-1.005 1.742-.652.467-1.667.7-3.05.7-.94 0-1.801-.153-2.581-.46-.78-.308-1.392-.72-1.832-1.238a1.3 1.3 0 0 0-.826-.417c-.33-.04-.657.059-.977.298-.28.22-.44.497-.48.834-.039.34.06.637.3.894.702.756 1.638 1.337 2.809 1.742 1.17.408 2.378.61 3.62.61 1.32 0 2.46-.209 3.422-.626.965-.412 1.71-.974 2.241-1.679ZM89.88 7.66c0-.377-.12-.681-.361-.908-.24-.228-.55-.342-.932-.342-.38 0-.686.114-.915.342-.23.229-.344.531-.344.908v8.672c0 .815-.222 1.535-.662 2.16-.44.627-1.04 1.123-1.802 1.491-.762.368-1.61.552-2.552.552-.981 0-1.862-.194-2.644-.581a4.44 4.44 0 0 1-1.861-1.728c-.46-.764-.691-1.753-.691-2.965v-7.6a1.233 1.233 0 0 0-1.261-1.252c-.36 0-.661.12-.9.359-.24.239-.362.537-.362.893v7.6c0 1.649.32 3.04.962 4.172.64 1.133 1.516 1.992 2.628 2.578 1.111.585 2.377.878 3.799.878 1.3 0 2.481-.288 3.543-.864a6.862 6.862 0 0 0 1.802-1.399v.802c0 .398.116.71.345.94.23.228.536.341.915.341.381 0 .691-.114.932-.342.24-.227.36-.541.36-.939V7.66Zm8.874 1.178c.91-.288 1.957-.362 3.138-.224.32.039.605.059.856.059.25 0 .47-.06.661-.179.19-.12.315-.317.376-.595.14-.517-.056-.925-.585-1.223-.53-.298-1.306-.446-2.327-.446-1.16 0-2.228.278-3.199.834a6.43 6.43 0 0 0-1.906 1.653V7.66c0-.398-.106-.706-.315-.925-.21-.217-.516-.327-.917-.327-.4 0-.71.11-.93.327-.22.22-.33.527-.33.925v13.797c0 .398.111.706.33.925.22.22.53.327.93.327.401 0 .706-.11.917-.327.21-.218.315-.527.315-.925v-8.85c0-.914.27-1.7.811-2.355.538-.655 1.263-1.126 2.175-1.414Zm5.54 10.028a7.718 7.718 0 0 0 2.973 2.935c1.262.705 2.713 1.059 4.355 1.059.92 0 1.891-.179 2.914-.537 1.022-.358 1.861-.815 2.522-1.371.281-.218.416-.476.406-.776-.01-.298-.165-.576-.465-.834-.201-.179-.455-.264-.765-.254-.31.01-.586.105-.826.283-.421.359-.986.656-1.697.894a6.524 6.524 0 0 1-2.087.358c-1.183 0-2.228-.259-3.138-.776a5.608 5.608 0 0 1-2.147-2.145 5.943 5.943 0 0 1-.734-2.294h11.905c.34 0 .62-.105.841-.313.219-.21.33-.48.33-.82 0-1.55-.305-2.93-.917-4.143-.612-1.21-1.482-2.16-2.612-2.845-1.131-.686-2.458-1.028-3.979-1.028-1.561 0-2.938.358-4.128 1.073a7.644 7.644 0 0 0-2.808 2.936c-.681 1.242-1.021 2.677-1.021 4.307-.003 1.608.358 3.039 1.078 4.29Zm3.888-9.596c.851-.517 1.847-.776 2.988-.776 1.082 0 2.012.249 2.793.745.782.497 1.382 1.183 1.803 2.057.301.628.488 1.315.563 2.057h-10.684c.104-.69.298-1.332.587-1.923a5.05 5.05 0 0 1 1.95-2.16Zm27.853 13.59c1.522 0 2.877-.362 4.07-1.088a7.957 7.957 0 0 0 2.837-2.965c.701-1.252 1.051-2.663 1.051-4.232 0-1.589-.366-3.01-1.097-4.261a8.063 8.063 0 0 0-2.973-2.965c-1.251-.725-2.678-1.088-4.279-1.088-1.561 0-2.963.358-4.204 1.073a7.984 7.984 0 0 0-2.958 2.95c-.731 1.252-1.107 2.653-1.127 4.203v13.915c0 .398.116.71.345.94.229.227.546.341.947.341.379 0 .685-.114.915-.342.229-.229.344-.541.344-.939v-8.524c.661.894 1.522 1.615 2.582 2.16 1.066.549 2.246.822 3.547.822Zm-5.435-5.217c-.501-.913-.75-1.937-.75-3.07 0-1.152.251-2.184.75-3.099a5.56 5.56 0 0 1 2.088-2.16c.89-.525 1.886-.79 2.988-.79 1.121 0 2.122.268 3.002.805a5.874 5.874 0 0 1 2.088 2.16c.511.905.765 1.932.765 3.084 0 1.133-.256 2.157-.765 3.07a5.672 5.672 0 0 1-2.103 2.16c-.89.527-1.896.79-3.017.79-1.101 0-2.092-.263-2.973-.79a5.582 5.582 0 0 1-2.073-2.16Zm18.123 4.739c.21-.218.315-.527.315-.925v-8.85c0-.914.271-1.7.811-2.355.541-.656 1.267-1.128 2.177-1.416.91-.288 1.957-.361 3.138-.224.32.04.605.059.855.059.251 0 .47-.059.662-.178.189-.12.315-.318.376-.596.14-.517-.056-.925-.586-1.222-.531-.298-1.306-.447-2.326-.447a6.323 6.323 0 0 0-3.199.834 6.433 6.433 0 0 0-1.906 1.653V7.658c0-.398-.106-.705-.315-.924-.211-.218-.516-.328-.917-.328s-.711.11-.932.328c-.22.219-.329.526-.329.924v13.798c0 .397.11.705.329.924.22.22.531.328.932.328.399.001.704-.107.915-.326Zm8.843-3.517a7.718 7.718 0 0 0 2.973 2.936c1.261.705 2.712 1.059 4.355 1.059.92 0 1.891-.179 2.913-.537 1.023-.358 1.862-.815 2.523-1.371.28-.218.416-.476.406-.776-.01-.298-.165-.576-.465-.834-.202-.179-.455-.264-.765-.254-.31.01-.586.105-.827.283-.42.359-.986.656-1.696.894a6.53 6.53 0 0 1-2.088.358c-1.182 0-2.227-.259-3.137-.776a5.608 5.608 0 0 1-2.147-2.145 5.943 5.943 0 0 1-.734-2.294h11.905c.339 0 .62-.105.841-.313.219-.21.329-.48.329-.82 0-1.55-.305-2.93-.916-4.143-.612-1.21-1.483-2.16-2.612-2.845-1.131-.686-2.459-1.028-3.979-1.028-1.561 0-2.938.358-4.129 1.073a7.652 7.652 0 0 0-2.808 2.936c-.681 1.242-1.02 2.677-1.02 4.307-.002 1.608.358 3.039 1.078 4.29Zm3.89-9.595c.851-.517 1.847-.776 2.988-.776 1.081 0 2.011.249 2.793.745.781.497 1.381 1.183 1.802 2.057.302.628.488 1.315.564 2.057h-10.685c.104-.69.299-1.332.587-1.923a5.04 5.04 0 0 1 1.951-2.16Zm22.238-2.31c-1.021-.467-2.132-.701-3.334-.701-1.561 0-2.938.363-4.129 1.088a7.83 7.83 0 0 0-2.823 2.965c-.69 1.252-1.035 2.672-1.035 4.261 0 1.57.354 2.98 1.067 4.232a7.878 7.878 0 0 0 2.928 2.965c1.242.725 2.653 1.088 4.234 1.088 2.182 0 4.004-.666 5.466-1.996.241-.24.34-.507.301-.805-.04-.298-.192-.566-.451-.805a1.144 1.144 0 0 0-.781-.24c-.28.02-.561.14-.841.36a4.686 4.686 0 0 1-1.637.924c-.612.198-1.296.297-2.058.297-1.121 0-2.117-.263-2.988-.79a5.551 5.551 0 0 1-2.041-2.145c-.492-.903-.736-1.933-.736-3.085 0-1.193.23-2.24.691-3.143a5.275 5.275 0 0 1 1.938-2.13c.831-.518 1.797-.776 2.898-.776 1.662 0 3.043.617 4.144 1.847.241.259.505.412.796.462.291.049.556-.005.797-.164.3-.218.485-.471.555-.76.07-.287-.014-.57-.255-.849-.785-.932-1.685-1.633-2.706-2.1Zm7.146-3.502c.48 0 .891-.174 1.232-.522.34-.347.511-.76.511-1.237 0-.496-.175-.904-.526-1.223A1.753 1.753 0 0 0 190.84 0c-.46 0-.865.159-1.217.476-.349.318-.526.725-.526 1.223 0 .476.17.89.512 1.237.339.348.75.522 1.231.522Zm.03 2.95c-.381 0-.691.114-.932.342-.24.229-.361.542-.361.94v13.738c0 .398.121.71.361.94.241.228.551.341.932.341.379 0 .686-.114.915-.342.229-.227.345-.541.345-.939V7.689c0-.397-.116-.71-.345-.94-.229-.227-.534-.341-.915-.341Zm17.328 11.682c0-.755-.185-1.44-.556-2.057-.371-.615-.991-1.157-1.861-1.625-.871-.466-2.058-.83-3.559-1.088-1.101-.198-1.947-.422-2.537-.671-.59-.249-1.001-.532-1.232-.85-.231-.317-.344-.695-.344-1.132 0-.634.319-1.157.961-1.564.64-.407 1.48-.61 2.523-.61.821 0 1.551.124 2.191.373.64.248 1.21.641 1.711 1.176.241.259.536.418.886.476.349.06.656 0 .915-.178.3-.178.465-.422.495-.73.029-.307-.066-.6-.286-.878-.6-.755-1.391-1.357-2.372-1.804-.981-.446-2.142-.67-3.484-.67-1.062 0-2.048.168-2.958.507-.912.338-1.648.844-2.208 1.52-.561.676-.841 1.52-.841 2.533 0 1.113.465 2.067 1.396 2.86.932.795 2.408 1.362 4.429 1.699 1.562.258 2.668.617 3.318 1.073.649.457.976 1.023.976 1.699-.02.695-.356 1.276-1.006 1.742-.651.467-1.667.7-3.049.7-.941 0-1.802-.153-2.582-.46-.781-.308-1.391-.72-1.832-1.238a1.294 1.294 0 0 0-.826-.417c-.33-.04-.656.059-.976.298-.28.22-.44.497-.48.834-.039.34.06.637.3.894.701.756 1.638 1.337 2.808 1.742 1.171.408 2.378.61 3.62.61 1.32 0 2.461-.209 3.423-.626.961-.417 1.706-.978 2.237-1.684.534-.7.8-1.52.8-2.454Zm3.662-11.682c-.381 0-.691.114-.932.342-.24.229-.361.542-.361.94v13.738c0 .398.121.71.361.94.241.228.551.341.932.341.379 0 .686-.114.915-.342.229-.227.345-.541.345-.939V7.689c0-.397-.116-.71-.345-.94-.229-.227-.534-.341-.915-.341Zm-.03-6.406c-.46 0-.865.158-1.216.476-.35.317-.526.725-.526 1.222 0 .476.169.89.511 1.237.339.349.75.522 1.231.522.482 0 .891-.173 1.232-.522.34-.347.511-.759.511-1.237 0-.496-.175-.903-.526-1.222a1.76 1.76 0 0 0-1.217-.476Zm16.847 7.33c-1.242-.715-2.663-1.073-4.264-1.073-1.621 0-3.059.358-4.309 1.073a7.855 7.855 0 0 0-2.958 2.95c-.72 1.253-1.081 2.683-1.081 4.293 0 1.589.361 3.01 1.081 4.261a7.855 7.855 0 0 0 2.958 2.95c1.252.715 2.688 1.074 4.309 1.074 1.601 0 3.027-.359 4.279-1.074a7.855 7.855 0 0 0 2.958-2.95c.72-1.252 1.081-2.672 1.081-4.261-.019-1.609-.39-3.04-1.111-4.292a7.873 7.873 0 0 0-2.943-2.95Zm.811 10.326a5.63 5.63 0 0 1-2.072 2.145c-.881.527-1.882.79-3.003.79-1.121 0-2.127-.263-3.017-.79a5.725 5.725 0 0 1-2.103-2.145c-.511-.903-.765-1.933-.765-3.085s.256-2.184.765-3.099a5.668 5.668 0 0 1 2.103-2.16c.89-.525 1.896-.79 3.017-.79s2.122.263 3.003.79a5.623 5.623 0 0 1 2.072 2.16c.5.915.75 1.947.75 3.1s-.25 2.18-.75 3.084Zm20.045-7.97c-.651-1.133-1.531-1.992-2.643-2.578-1.111-.586-2.367-.879-3.769-.879-1.301 0-2.483.288-3.543.864a6.984 6.984 0 0 0-1.803 1.391v-.795c0-.398-.115-.71-.344-.94-.231-.227-.536-.341-.915-.341-.401 0-.716.114-.947.342-.231.229-.344.541-.344.939v13.768c0 .378.115.68.344.91.229.229.546.342.947.342.379 0 .686-.115.915-.342.229-.228.344-.532.344-.91v-8.673c0-.814.22-1.534.662-2.16.44-.625 1.035-1.122 1.787-1.49.75-.368 1.596-.552 2.538-.552 1 0 1.891.193 2.672.581a4.345 4.345 0 0 1 1.847 1.728c.45.764.676 1.754.676 2.965v7.6c0 .358.121.656.361.893.241.237.551.358.932.358.361 0 .661-.12.9-.358.239-.239.361-.537.361-.894v-7.599c-.001-1.648-.328-3.039-.978-4.17Z" fill="#333333"></path></svg>