<svg xmlns:xlink="http://www.w3.org/1999/xlink" width="288" height="60" fill="none" xmlns="http://www.w3.org/2000/svg"><g clip-path="url(#a)" fill="none"><path d="M57.703 58.256c.132-.315.837-.436.268-.986-2.87-2.773-5.723-5.566-8.58-8.353-.414-.193-.736-.51-1.078-.797-4.65-4.693-9.213-9.473-14.065-13.964-.414-.195-.74-.508-1.079-.802-1.845-1.876-3.703-3.74-5.523-5.637-.35-.365-.49-.123-.72.063-.253.208-.281.398-.006.61.135.107.252.236.374.359 3.862 3.839 7.583 7.833 11.623 11.479 5.036 4.546 9.506 9.646 14.566 14.156.365.14.609.412.823.72 1.1.998 2.213 1.982 3.138 3.15.084.002.171.002.259.002Z" fill="#109EBF"></path><path d="M9.905 9.349C8.13 7.923 7.057 5.912 5.575 4.24c-.745-.84-1.417-1.746-2.11-2.63-.271-.343-.542-.819-1.031-.475-.617.432-.07.852.194 1.186 2.44 3.086 4.9 6.16 7.354 9.234 2.78 3.48 5.569 6.953 8.334 10.443.321.406.996.817.079 1.419-.579.38-.81.342-1.23-.19C12.69 17.56 8.185 11.918 3.69 6.266c-.78-.98-1.538-1.98-2.343-2.943C1.077 3 .808 2.353.234 2.84c-.552.47.01.846.284 1.19 3.812 4.812 7.63 9.62 11.451 14.427 1.398 1.76 2.813 3.507 4.207 5.273.278.352.694.68.346 1.247-.185.3.05.564.247.806 1.12 1.375 2.256 2.736 3.34 4.137.535.689 1.006.637 1.621.126 1.334-1.106 2.695-2.178 4.052-3.256.504-.401.743-.702.161-1.339-1.197-1.306-2.27-2.721-3.385-4.1-.19-.236-.404-.668-.656-.534-1.15.614-1.397-.391-1.85-.962C14.962 13.462 9.883 7.06 4.8.664c-.28-.353-.53-.955-1.106-.5-.574.451-.029.862.235 1.2C5.92 3.92 7.933 6.46 9.94 9.006c1.423 2.326 3.308 4.31 4.934 6.486 1.469 1.967 3.073 3.832 4.327 5.472-3.018-3.603-5.973-7.755-9.295-11.616Z" fill="#AFAFAF"></path><path d="M38.624 58.07c.671-.076.696-.505.418-.997-.404-.712-.861-1.393-1.298-2.085L23.35 32.117c-.16-.255-.305-.529-.511-.743-.18-.187-.436-.282-.706-.105-.259.169-.322.42-.227.674.102.278.268.537.428.792 3.074 4.891 6.15 9.78 9.227 14.669 2.075 3.293 4.149 6.587 6.228 9.878.2.313.32.725.834.789Zm8.537-.015c.225.01.455-.03.554-.244.113-.247.054-.486-.13-.714-1.438-1.775-2.865-3.56-4.3-5.337-1.914-2.368-3.831-4.731-5.747-7.096-1.974-2.435-3.946-4.873-5.93-7.301-.258-.318-.529-.785-1.048-.376-.528.415-.063.823.152 1.088 2.318 2.862 4.692 5.681 7.014 8.543 2.267 2.795 4.49 5.626 6.737 8.437.717.897 1.451 1.782 2.167 2.679.143.18.296.307.53.32ZM28.533 35.164c.554-.213.787-.56.434-1.01-1.205-1.538-2.444-3.05-3.682-4.562-.211-.257-.508-.322-.811-.113-.32.223-.305.545-.112.79a337.506 337.506 0 0 0 3.672 4.56c.127.155.346.235.5.335Zm-9.017 1.98c.005.946.453 1.397 1.2 1.368.641-.025 1.131-.444 1.209-1.133.066-.582-1.135-2.782-1.3-2.608-.668.695-.897 1.613-1.11 2.373Zm36.366 12.063c.99-.128 1.258-.946 1.5-1.686.173-.528-.168-1.004-.7-1.206-.555-.21-1.102-.222-1.358.483-.13.215-.01.337.165.439 1.575.383.08.923.07 1.387-.067.29.06.473.323.583Z" fill="#109EBF"></path><path d="m55.698 47.14-.374-.342c-.574.826-.14 1.74-.226 2.608-.023.241.119.424.391.385.33-.047.346-.334.392-.586l-.216-.627c.317-.47.355-.95.033-1.438Zm-28.583-.663c.032.342.218.578.56.58.347.001.55-.236.552-.58.003-.353-.226-.564-.561-.574-.353-.01-.526.23-.55.574Zm13.386-12.092c.046.319.206.555.565.546.36-.01.536-.25.54-.584.003-.288-.164-.468-.472-.476-.351-.01-.547.177-.633.514Zm8.6 8.546c.084.37.343.526.652.46.316-.067.48-.329.413-.67-.05-.276-.23-.475-.502-.475-.454-.002-.398.443-.563.685Zm-1.871-6.947c-.005.37.181.567.55.56.286-.007.497-.132.525-.454.036-.434-.323-.47-.594-.547-.353-.1-.433.17-.481.44Z" fill="#109EBF"></path><path d="M30.597 54.418c.288-.026.468-.175.478-.468.012-.347-.214-.383-.496-.356-.292.026-.632-.013-.546.443.056.298.293.375.564.381Z" fill="#0088DE"></path><path d="M33.168 33.354c.208.468.51.811 1.078.802-.26-.4-.54-.771-1.078-.802ZM48.31 48.12c.212.463.51.809 1.078.797-.257-.4-.54-.767-1.078-.797Z" fill="#109EBF"></path><path d="M54.303 55.106c-.04-.504-.325-.732-.822-.72.204.317.412.631.822.72Z" fill="#048EDF"></path><path d="M20.661 36.063c-.267.594-.82 1.023-.282 1.645.14.162.462.178.582.005.394-.568.181-1.075-.3-1.65ZM55.699 47.14c-.011.48-.02.96-.032 1.44.502.036.558-.455.817-.7.234-.221.3-.539.09-.809-.3-.384-.596-.137-.874.069Z" fill="#109EBF"></path><path d="M50.058 24.763c-1.252-.725-2.678-1.088-4.279-1.088-1.561 0-2.963.358-4.205 1.073a7.99 7.99 0 0 0-2.958 2.95c-.73 1.252-1.106 2.653-1.126 4.203v13.917c0 .398.116.71.345.94.229.227.546.341.946.341.381 0 .686-.114.915-.342.23-.229.345-.541.345-.94v-8.523c.661.894 1.522 1.615 2.582 2.16 1.06.547 2.243.82 3.544.82 1.521 0 2.877-.362 4.069-1.088a7.953 7.953 0 0 0 2.838-2.965c.7-1.252 1.05-2.663 1.05-4.232 0-1.589-.366-3.01-1.096-4.261a8.036 8.036 0 0 0-2.97-2.965Zm.84 10.296a5.676 5.676 0 0 1-2.102 2.16c-.89.527-1.896.79-3.017.79-1.101 0-2.092-.263-2.973-.79a5.622 5.622 0 0 1-2.072-2.16c-.502-.913-.75-1.938-.75-3.07 0-1.152.25-2.184.75-3.1a5.555 5.555 0 0 1 2.087-2.16c.89-.524 1.886-.79 2.988-.79 1.121 0 2.122.269 3.002.806a5.878 5.878 0 0 1 2.088 2.16c.511.904.765 1.932.765 3.084.002 1.134-.254 2.157-.765 3.07Zm16.292-9.745c.14-.517-.056-.924-.586-1.222-.53-.298-1.306-.447-2.326-.447-1.161 0-2.228.279-3.199.835a6.45 6.45 0 0 0-1.906 1.653v-1.057c0-.398-.106-.706-.315-.925-.21-.218-.516-.327-.915-.327-.4 0-.71.11-.932.327-.22.22-.33.527-.33.925v13.797c0 .398.11.706.33.925.22.219.531.327.932.327.4 0 .706-.11.915-.327.21-.218.315-.527.315-.925v-8.85c0-.914.27-1.7.811-2.355.541-.657 1.267-1.128 2.177-1.416.91-.288 1.957-.362 3.137-.224.32.04.606.059.856.059s.47-.06.661-.179c.19-.117.315-.315.375-.594ZM77.942 39.74c1.02-.358 1.862-.815 2.523-1.371.28-.218.415-.477.405-.776-.01-.298-.165-.576-.465-.835-.2-.178-.455-.263-.765-.253-.31.01-.585.105-.826.283-.42.358-.986.656-1.696.893a6.528 6.528 0 0 1-2.088.359c-1.182 0-2.228-.259-3.138-.776a5.612 5.612 0 0 1-2.147-2.145 5.937 5.937 0 0 1-.733-2.294h11.904c.34 0 .62-.105.841-.313.22-.21.33-.481.33-.82 0-1.55-.305-2.93-.915-4.143-.612-1.21-1.482-2.16-2.612-2.846-1.13-.685-2.458-1.027-3.978-1.027-1.562 0-2.939.358-4.13 1.073a7.636 7.636 0 0 0-2.807 2.936c-.681 1.242-1.02 2.677-1.02 4.307 0 1.608.36 3.04 1.08 4.292a7.711 7.711 0 0 0 2.974 2.935c1.261.706 2.712 1.06 4.354 1.06.915-.002 1.887-.182 2.909-.54Zm-6.351-13.053c.85-.517 1.846-.776 2.987-.776 1.082 0 2.012.249 2.793.745.782.497 1.382 1.183 1.803 2.056.301.629.488 1.316.564 2.057H69.053c.104-.69.298-1.332.587-1.922a5.026 5.026 0 0 1 1.95-2.16Zm23.842 11.279c.531-.705.797-1.525.797-2.46 0-.754-.185-1.44-.556-2.056-.371-.615-.991-1.157-1.862-1.625-.87-.466-2.057-.83-3.558-1.088-1.101-.198-1.947-.422-2.538-.671-.59-.249-1-.532-1.231-.85-.231-.317-.345-.695-.345-1.132 0-.635.32-1.157.962-1.564.64-.408 1.48-.61 2.522-.61.821 0 1.552.124 2.192.373.64.248 1.21.641 1.711 1.176.24.259.536.417.886.476.35.06.656 0 .915-.178.3-.178.465-.422.494-.73.03-.308-.066-.6-.285-.879-.6-.754-1.392-1.356-2.373-1.803-.98-.447-2.142-.67-3.484-.67-1.062 0-2.048.168-2.958.506-.912.34-1.647.845-2.208 1.52-.56.676-.84 1.52-.84 2.534 0 1.112.464 2.066 1.396 2.86.932.795 2.407 1.361 4.429 1.698 1.561.26 2.668.617 3.317 1.074.65.456.977 1.023.977 1.699-.02.695-.357 1.276-1.006 1.742-.652.467-1.667.7-3.049.7-.942 0-1.802-.153-2.582-.46-.78-.308-1.392-.72-1.832-1.238a1.3 1.3 0 0 0-.826-.417c-.33-.04-.656.059-.976.298-.28.219-.44.497-.48.834-.04.339.06.637.3.894.7.756 1.637 1.337 2.808 1.742 1.17.408 2.378.61 3.62.61 1.32 0 2.461-.209 3.422-.626.965-.412 1.71-.974 2.241-1.679Zm14.205 0c.531-.705.797-1.525.797-2.46 0-.754-.185-1.44-.556-2.056-.371-.615-.991-1.157-1.862-1.625-.87-.466-2.057-.83-3.558-1.088-1.101-.198-1.947-.422-2.537-.671-.591-.249-1.001-.532-1.232-.85-.231-.317-.345-.695-.345-1.132 0-.635.32-1.157.961-1.564.64-.408 1.481-.61 2.523-.61.821 0 1.552.124 2.192.373.639.248 1.21.641 1.711 1.176.241.259.536.417.886.476.349.06.656 0 .915-.178.3-.178.465-.422.494-.73.03-.308-.066-.6-.285-.879-.6-.754-1.392-1.356-2.373-1.803-.981-.447-2.142-.67-3.484-.67-1.062 0-2.048.168-2.958.506-.912.34-1.647.845-2.208 1.52-.56.676-.84 1.52-.84 2.534 0 1.112.465 2.066 1.396 2.86.932.795 2.407 1.361 4.429 1.698 1.561.26 2.668.617 3.317 1.074.65.456.977 1.023.977 1.699-.02.695-.357 1.276-1.006 1.742-.652.467-1.667.7-3.049.7-.941 0-1.802-.153-2.582-.46-.78-.308-1.392-.72-1.832-1.238a1.3 1.3 0 0 0-.826-.417c-.33-.04-.656.059-.976.298-.28.219-.44.497-.48.834-.04.339.06.637.3.894.7.756 1.637 1.337 2.808 1.742 1.171.408 2.378.61 3.619.61 1.321 0 2.462-.209 3.423-.626.965-.412 1.71-.974 2.241-1.679Zm17.732-12.89c0-.376-.12-.68-.361-.908-.241-.227-.551-.342-.932-.342-.38 0-.685.115-.915.342-.23.23-.344.532-.344.909v8.672c0 .815-.221 1.535-.661 2.16-.441.627-1.041 1.123-1.803 1.49-.761.369-1.611.552-2.552.552-.981 0-1.862-.193-2.643-.58a4.439 4.439 0 0 1-1.862-1.729c-.46-.764-.691-1.752-.691-2.965v-7.599c0-.358-.12-.656-.361-.893a1.234 1.234 0 0 0-.9-.359c-.36 0-.661.12-.9.359a1.215 1.215 0 0 0-.362.893v7.6c0 1.649.32 3.04.962 4.172.64 1.132 1.517 1.992 2.628 2.577 1.111.586 2.378.879 3.799.879 1.301 0 2.482-.288 3.544-.864a6.873 6.873 0 0 0 1.802-1.399v.802c0 .397.115.71.344.939.23.23.536.342.915.342.381 0 .691-.114.932-.342.241-.227.361-.542.361-.94V25.076Zm8.874 1.179c.911-.288 1.958-.362 3.138-.225.32.04.605.06.856.06s.47-.06.661-.179c.19-.12.315-.317.376-.596.14-.517-.056-.924-.585-1.222-.53-.298-1.306-.447-2.327-.447a6.326 6.326 0 0 0-3.199.835 6.433 6.433 0 0 0-1.906 1.653v-1.057c0-.398-.105-.706-.315-.925-.211-.218-.516-.327-.916-.327-.401 0-.711.11-.93.327-.221.22-.33.527-.33.925v13.797c0 .398.11.706.33.925.219.219.529.327.93.327.4 0 .705-.11.916-.327.21-.218.315-.527.315-.925v-8.85c0-.914.271-1.7.812-2.355.537-.655 1.263-1.126 2.174-1.414Zm5.541 10.027a7.705 7.705 0 0 0 2.973 2.936c1.261.705 2.712 1.059 4.354 1.059.92 0 1.891-.179 2.914-.537 1.022-.358 1.861-.815 2.523-1.371.28-.218.415-.477.405-.776-.01-.298-.165-.576-.465-.835-.201-.178-.455-.263-.765-.253-.31.01-.585.105-.826.283-.42.358-.986.656-1.697.893a6.523 6.523 0 0 1-2.087.359c-1.182 0-2.228-.259-3.138-.776a5.615 5.615 0 0 1-2.147-2.145 5.944 5.944 0 0 1-.734-2.294H155c.34 0 .62-.105.841-.313.22-.21.33-.481.33-.82 0-1.55-.305-2.93-.917-4.143a6.881 6.881 0 0 0-2.612-2.846c-1.131-.685-2.458-1.027-3.978-1.027-1.562 0-2.939.358-4.129 1.073a7.644 7.644 0 0 0-2.808 2.936c-.681 1.242-1.021 2.677-1.021 4.307-.003 1.608.358 3.038 1.079 4.29Zm3.888-9.595c.85-.517 1.846-.776 2.987-.776 1.082 0 2.012.249 2.794.745.781.497 1.381 1.183 1.802 2.056.302.629.488 1.316.564 2.057h-10.685c.104-.69.298-1.332.587-1.922a5.045 5.045 0 0 1 1.951-2.16Zm27.852 13.59c1.522 0 2.878-.362 4.07-1.089a7.95 7.95 0 0 0 2.837-2.965c.701-1.252 1.051-2.662 1.051-4.231 0-1.59-.366-3.01-1.097-4.261a8.063 8.063 0 0 0-2.973-2.965c-1.251-.725-2.677-1.089-4.278-1.089-1.562 0-2.963.359-4.205 1.074a7.985 7.985 0 0 0-2.958 2.95c-.731 1.252-1.107 2.653-1.126 4.202v13.916c0 .398.115.71.344.94.23.227.546.341.947.341.379 0 .686-.114.915-.342.229-.229.345-.541.345-.94v-8.523c.661.894 1.521 1.615 2.582 2.16 1.065.548 2.245.822 3.546.822Zm-5.434-5.217c-.502-.913-.751-1.938-.751-3.07 0-1.152.251-2.184.751-3.1a5.55 5.55 0 0 1 2.087-2.16c.891-.524 1.886-.79 2.988-.79 1.121 0 2.122.269 3.003.806a5.88 5.88 0 0 1 2.087 2.16c.511.904.765 1.932.765 3.084 0 1.132-.256 2.157-.765 3.07a5.676 5.676 0 0 1-2.102 2.16c-.891.527-1.897.79-3.018.79-1.101 0-2.092-.263-2.973-.79a5.572 5.572 0 0 1-2.072-2.16Zm18.122 4.739c.21-.218.315-.527.315-.925v-8.85c0-.914.271-1.7.812-2.355.54-.657 1.266-1.128 2.176-1.416.91-.288 1.957-.362 3.138-.224.32.04.605.059.856.059.25 0 .47-.06.661-.179.189-.119.315-.317.376-.595.14-.517-.056-.925-.586-1.223-.53-.297-1.305-.446-2.326-.446a6.323 6.323 0 0 0-3.199.834 6.433 6.433 0 0 0-1.906 1.653v-1.057c0-.398-.106-.705-.315-.925-.211-.217-.516-.327-.917-.327-.4 0-.71.11-.931.327-.221.22-.33.527-.33.925v13.798c0 .397.11.705.33.924.219.22.531.327.931.327.399.002.704-.106.915-.325Zm8.843-3.517a7.718 7.718 0 0 0 2.973 2.936c1.262.705 2.713 1.059 4.355 1.059.92 0 1.891-.179 2.913-.537 1.023-.358 1.862-.815 2.523-1.371.281-.218.416-.477.406-.776-.01-.298-.165-.576-.465-.835-.201-.178-.455-.263-.765-.253-.31.01-.586.105-.826.283-.421.358-.986.656-1.697.893a6.527 6.527 0 0 1-2.087.359c-1.183 0-2.228-.259-3.138-.776a5.608 5.608 0 0 1-2.147-2.145 5.944 5.944 0 0 1-.734-2.294h11.905c.34 0 .62-.105.841-.313.219-.21.33-.481.33-.82 0-1.55-.305-2.93-.917-4.143-.612-1.21-1.482-2.16-2.612-2.846-1.131-.685-2.458-1.027-3.979-1.027-1.561 0-2.938.358-4.128 1.073a7.644 7.644 0 0 0-2.808 2.936c-.681 1.242-1.021 2.677-1.021 4.307-.002 1.608.358 3.038 1.078 4.29Zm3.89-9.595c.851-.517 1.847-.776 2.988-.776 1.081 0 2.011.249 2.793.745.782.497 1.382 1.183 1.802 2.056.302.629.488 1.316.564 2.057h-10.685c.104-.69.299-1.332.587-1.922a5.039 5.039 0 0 1 1.951-2.16Zm22.238-2.31c-1.02-.467-2.132-.701-3.334-.701-1.561 0-2.938.363-4.128 1.088a7.822 7.822 0 0 0-2.823 2.965c-.691 1.252-1.036 2.672-1.036 4.261 0 1.57.355 2.98 1.067 4.232a7.885 7.885 0 0 0 2.928 2.965c1.242.725 2.653 1.088 4.235 1.088 2.181 0 4.003-.666 5.466-1.996.24-.24.339-.508.3-.806-.04-.297-.191-.566-.45-.805a1.148 1.148 0 0 0-.782-.239c-.28.02-.561.14-.841.359a4.68 4.68 0 0 1-1.637.924c-.612.198-1.296.298-2.058.298-1.121 0-2.117-.263-2.988-.79a5.566 5.566 0 0 1-2.041-2.145c-.491-.904-.735-1.933-.735-3.085 0-1.193.229-2.24.69-3.143a5.282 5.282 0 0 1 1.938-2.13c.831-.518 1.797-.777 2.899-.777 1.662 0 3.042.617 4.143 1.848.241.259.505.412.797.461.29.05.555-.005.796-.163.3-.218.485-.472.556-.76.069-.287-.015-.57-.256-.849-.785-.932-1.685-1.633-2.706-2.1Zm7.147-3.503c.479 0 .89-.173 1.231-.522.34-.346.511-.759.511-1.237 0-.495-.174-.903-.526-1.222a1.753 1.753 0 0 0-1.216-.476c-.461 0-.866.159-1.217.476-.35.317-.526.725-.526 1.222 0 .476.17.89.511 1.237.34.349.75.522 1.232.522Zm.029 2.95c-.381 0-.691.115-.931.343-.241.229-.362.541-.362.939v13.739c0 .397.121.71.362.939.24.23.55.342.931.342.379 0 .686-.114.915-.342.23-.227.345-.542.345-.94V25.106c0-.398-.115-.71-.345-.94-.229-.227-.534-.341-.915-.341Zm17.328 11.683c0-.755-.184-1.44-.555-2.057-.371-.615-.991-1.157-1.862-1.625-.871-.466-2.058-.83-3.558-1.088-1.102-.198-1.948-.422-2.538-.671-.59-.249-1.001-.532-1.232-.85-.23-.317-.344-.695-.344-1.132 0-.635.32-1.157.961-1.564.64-.408 1.481-.61 2.523-.61.821 0 1.551.124 2.191.373.64.248 1.21.641 1.712 1.176.24.259.536.417.885.476.35.06.656 0 .915-.178.3-.178.465-.422.495-.73.03-.308-.066-.6-.285-.879-.601-.754-1.392-1.356-2.373-1.803-.981-.447-2.142-.67-3.484-.67-1.062 0-2.048.168-2.958.506-.912.34-1.647.845-2.208 1.52-.561.676-.841 1.52-.841 2.534 0 1.112.465 2.066 1.397 2.86.931.795 2.407 1.361 4.429 1.698 1.561.26 2.667.617 3.317 1.074.65.456.976 1.023.976 1.699-.02.695-.356 1.276-1.006 1.742-.651.467-1.667.7-3.048.7-.942 0-1.803-.153-2.583-.46-.781-.308-1.391-.72-1.831-1.238a1.296 1.296 0 0 0-.827-.417c-.329-.04-.656.059-.976.298-.28.219-.44.497-.479.834-.04.339.059.637.3.894.7.756 1.637 1.337 2.808 1.742 1.17.408 2.377.61 3.619.61 1.321 0 2.462-.209 3.423-.626.961-.417 1.707-.979 2.237-1.684.535-.7.8-1.52.8-2.454Zm3.662-11.682c-.381 0-.691.114-.931.342-.241.229-.361.541-.361.939v13.739c0 .397.12.71.361.939.24.23.55.342.931.342.38 0 .686-.114.915-.342.23-.227.345-.542.345-.94V25.106c0-.398-.115-.71-.345-.94-.229-.227-.534-.341-.915-.341Zm-.029-6.407c-.46 0-.866.16-1.217.477-.35.317-.526.725-.526 1.222 0 .476.17.89.511 1.237.34.349.75.522 1.232.522.481 0 .89-.173 1.231-.522.34-.347.512-.76.512-1.237 0-.496-.175-.903-.526-1.222a1.762 1.762 0 0 0-1.217-.477Zm16.846 7.331c-1.241-.715-2.663-1.073-4.264-1.073-1.621 0-3.058.358-4.308 1.073a7.84 7.84 0 0 0-2.958 2.95c-.721 1.252-1.082 2.683-1.082 4.293 0 1.589.361 3.009 1.082 4.26a7.84 7.84 0 0 0 2.958 2.951c1.251.715 2.687 1.074 4.308 1.074 1.601 0 3.028-.359 4.279-1.074a7.848 7.848 0 0 0 2.958-2.95c.721-1.252 1.082-2.672 1.082-4.261-.02-1.609-.391-3.04-1.112-4.292a7.872 7.872 0 0 0-2.943-2.95Zm.811 10.326a5.63 5.63 0 0 1-2.072 2.145c-.881.527-1.882.79-3.003.79-1.121 0-2.127-.263-3.017-.79a5.732 5.732 0 0 1-2.103-2.145c-.511-.904-.765-1.933-.765-3.085s.256-2.184.765-3.1a5.682 5.682 0 0 1 2.103-2.16c.89-.524 1.896-.79 3.017-.79s2.122.264 3.003.79a5.623 5.623 0 0 1 2.072 2.16c.5.916.751 1.948.751 3.1 0 1.154-.251 2.181-.751 3.085Zm20.046-7.971c-.652-1.132-1.532-1.992-2.643-2.577-1.112-.586-2.368-.879-3.77-.879-1.301 0-2.483.288-3.543.864a6.961 6.961 0 0 0-1.802 1.39v-.794c0-.398-.116-.71-.345-.94-.231-.227-.536-.342-.915-.342-.401 0-.716.115-.947.342-.23.23-.344.542-.344.94v13.768c0 .378.115.68.344.91.23.229.546.342.947.342.379 0 .686-.115.915-.342.229-.228.345-.532.345-.91v-8.673c0-.815.219-1.535.661-2.16.44-.625 1.035-1.122 1.787-1.49.75-.369 1.596-.552 2.538-.552 1.001 0 1.891.193 2.673.581a4.348 4.348 0 0 1 1.846 1.728c.451.764.676 1.754.676 2.965v7.6c0 .358.121.655.362.893.24.237.55.358.931.358.361 0 .661-.12.9-.358.239-.24.362-.537.362-.894v-7.599c-.002-1.648-.329-3.039-.978-4.171Z" fill="#333333"></path><path d="M199.536 48.743a.612.612 0 0 0-.386.136c-.115.09-.171.226-.171.406 0 .157.052.288.159.394a.53.53 0 0 0 .386.159.542.542 0 0 0 .558-.553c0-.18-.058-.316-.172-.406a.598.598 0 0 0-.374-.136ZM78.682 51.547a.31.31 0 0 0 .089-.23.31.31 0 0 0-.09-.228.314.314 0 0 0-.23-.089h-1.566v-.247c0-.4.052-.76.16-1.078.107-.32.28-.57.522-.755.24-.185.564-.276.968-.276.11 0 .198-.03.26-.089a.302.302 0 0 0 .096-.229.296.296 0 0 0-.096-.229.366.366 0 0 0-.26-.088c-.546 0-.996.118-1.347.353-.353.236-.612.56-.778.972-.167.413-.25.886-.25 1.42v.248h-.926a.312.312 0 0 0-.23.088.31.31 0 0 0-.09.23c0 .093.03.17.09.228.058.06.136.089.23.089h.927v5.22a.343.343 0 0 0 .356.353c.11 0 .2-.033.267-.1a.34.34 0 0 0 .1-.253v-5.22h1.567a.322.322 0 0 0 .23-.09Zm4.908-.426c-.498-.286-1.065-.43-1.698-.43s-1.202.144-1.703.43c-.496.28-.906.686-1.187 1.178a3.315 3.315 0 0 0-.434 1.69c0 .62.145 1.18.434 1.68.288.499.684.892 1.187 1.178a3.38 3.38 0 0 0 1.703.43c.633 0 1.199-.144 1.698-.43.498-.287.892-.68 1.181-1.178a3.293 3.293 0 0 0 .434-1.68c0-.628-.145-1.19-.434-1.69a3.186 3.186 0 0 0-1.18-1.178Zm.564 4.207c-.226.396-.534.71-.926.943a2.57 2.57 0 0 1-1.336.347 2.569 2.569 0 0 1-2.267-1.29 2.623 2.623 0 0 1-.345-1.337c0-.502.116-.952.345-1.348a2.569 2.569 0 0 1 2.267-1.29c.498 0 .943.117 1.336.347.392.233.7.547.926.943.226.396.338.843.338 1.337 0 .502-.112.95-.338 1.348Zm5.491-4.53c-.166-.071-.399-.107-.7-.107-.444 0-.848.11-1.211.33-.335.203-.61.48-.831.825v-.73a.343.343 0 0 0-.096-.258.356.356 0 0 0-.26-.095.334.334 0 0 0-.356.353v5.737a.343.343 0 0 0 .356.354.34.34 0 0 0 .26-.1.357.357 0 0 0 .096-.254v-3.582c0-.37.087-.697.26-.983.175-.286.416-.512.724-.677a2.203 2.203 0 0 1 1.057-.248c.15 0 .287.01.41.03a.74.74 0 0 0 .314-.007c.087-.023.142-.095.167-.212.04-.18-.023-.305-.19-.377Zm8.297.323c-.498-.286-1.065-.43-1.698-.43s-1.202.144-1.703.43c-.496.28-.906.686-1.188 1.178a3.314 3.314 0 0 0-.433 1.69c0 .62.145 1.18.433 1.68.289.499.685.892 1.188 1.178a3.38 3.38 0 0 0 1.703.43c.577 0 1.091-.124 1.543-.371a2.88 2.88 0 0 0 1.057-.982v.93a.343.343 0 0 0 .356.353.34.34 0 0 0 .26-.1.356.356 0 0 0 .096-.254V53.99c0-.629-.145-1.192-.433-1.69a3.162 3.162 0 0 0-1.18-1.179Zm-.36 5.15a2.57 2.57 0 0 1-1.336.347 2.57 2.57 0 0 1-2.267-1.29 2.623 2.623 0 0 1-.345-1.337c0-.502.115-.952.344-1.348a2.57 2.57 0 0 1 2.268-1.29c.498 0 .943.117 1.335.347.392.233.7.547.927.943.226.396.338.846.338 1.348 0 .495-.112.941-.338 1.337-.22.39-.54.715-.927.943Zm4.563.229h-.297c-.245 0-.445-.116-.6-.347-.155-.232-.231-.529-.231-.89v-6.904a.344.344 0 0 0-.095-.259.356.356 0 0 0-.261-.094.356.356 0 0 0-.255.094.333.333 0 0 0-.101.26v6.903c0 .384.066.723.196 1.013.13.291.314.518.546.684.234.165.501.247.801.247h.238c.11 0 .198-.033.26-.1a.355.355 0 0 0 .096-.254.383.383 0 0 0-.082-.258.273.273 0 0 0-.215-.095Zm2.411 0h-.297c-.246 0-.445-.116-.6-.347-.155-.232-.231-.529-.231-.89v-6.904a.34.34 0 0 0-.096-.259.354.354 0 0 0-.26-.094.36.36 0 0 0-.256.094.336.336 0 0 0-.1.26v6.903c0 .384.066.723.196 1.013.13.291.313.518.546.684.234.165.501.247.801.247h.237a.34.34 0 0 0 .261-.1.355.355 0 0 0 .096-.254.378.378 0 0 0-.083-.258.272.272 0 0 0-.214-.095Zm8.653-5.726c-.198-.078-.345-.02-.439.177l-2.427 5.218-2.404-5.231c-.048-.102-.11-.165-.189-.188a.392.392 0 0 0-.274.036c-.102.047-.167.11-.19.188a.383.383 0 0 0 .037.272l2.6 5.655c.013.03.03.055.046.078l-1.185 2.55c-.096.204-.037.35.178.435a.496.496 0 0 0 .166.036c.111 0 .201-.07.274-.213l3.988-8.577c.093-.203.033-.349-.181-.436Zm5.046.347c-.498-.286-1.066-.43-1.699-.43s-1.202.144-1.703.43a3.14 3.14 0 0 0-1.187 1.178 3.31 3.31 0 0 0-.434 1.69c0 .62.145 1.18.434 1.68.288.499.684.892 1.187 1.178.503.286 1.07.43 1.703.43s1.199-.144 1.699-.43c.498-.287.892-.68 1.18-1.178a3.289 3.289 0 0 0 .434-1.68 3.31 3.31 0 0 0-.434-1.69 3.173 3.173 0 0 0-1.18-1.178Zm.564 4.207c-.226.396-.535.71-.927.943a2.573 2.573 0 0 1-1.336.347c-.491 0-.935-.117-1.329-.347a2.574 2.574 0 0 1-.938-.943 2.625 2.625 0 0 1-.345-1.337c0-.502.116-.952.345-1.348.224-.39.548-.715.938-.943.396-.232.84-.346 1.329-.346.498 0 .943.116 1.336.346.392.233.701.547.927.943.225.396.338.843.338 1.337 0 .502-.113.95-.338 1.348Zm7.533-4.565a.356.356 0 0 0-.255.095.333.333 0 0 0-.101.258v3.605c0 .354-.099.67-.297.95-.198.28-.466.5-.808.665a2.598 2.598 0 0 1-1.151.247c-.435 0-.824-.083-1.169-.253a1.92 1.92 0 0 1-.819-.766c-.203-.342-.304-.767-.304-1.278v-3.17a.349.349 0 0 0-.1-.253.347.347 0 0 0-.256-.1.346.346 0 0 0-.356.353v3.17c0 .645.132 1.19.398 1.638.265.448.623.787 1.075 1.02.451.232.961.346 1.531.346.515 0 .98-.111 1.395-.335.34-.183.625-.424.861-.717v.617a.341.341 0 0 0 .356.353.34.34 0 0 0 .261-.1.359.359 0 0 0 .095-.253v-5.737a.344.344 0 0 0-.095-.259.344.344 0 0 0-.261-.096Zm5.151.034c-.166-.07-.399-.106-.7-.106-.444 0-.848.11-1.211.33-.334.203-.61.48-.831.825v-.73a.344.344 0 0 0-.095-.258.356.356 0 0 0-.261-.095.36.36 0 0 0-.256.095.336.336 0 0 0-.1.258v5.737c0 .102.033.187.1.254.068.067.152.1.256.1a.34.34 0 0 0 .261-.1.359.359 0 0 0 .095-.254v-3.582c0-.37.088-.697.261-.983.175-.286.415-.512.724-.677a2.202 2.202 0 0 1 1.057-.248c.15 0 .286.01.408.03a.74.74 0 0 0 .315-.007c.088-.023.142-.095.167-.212.039-.18-.023-.305-.19-.377Zm8.649.324a3.384 3.384 0 0 0-1.704-.43c-.616 0-1.175.14-1.673.424a3.187 3.187 0 0 0-1.181 1.148 3.336 3.336 0 0 0-.457 1.656v5.692a.341.341 0 0 0 .357.353.34.34 0 0 0 .26-.1.355.355 0 0 0 .096-.253v-3.676c.254.41.606.735 1.062.979a3.2 3.2 0 0 0 1.536.365c.633 0 1.201-.144 1.704-.43a3.146 3.146 0 0 0 1.187-1.179c.288-.499.433-1.058.433-1.679a3.32 3.32 0 0 0-.433-1.69 3.162 3.162 0 0 0-1.187-1.18Zm.564 4.207c-.23.396-.541.71-.932.943a2.568 2.568 0 0 1-1.336.347c-.491 0-.935-.117-1.329-.347a2.53 2.53 0 0 1-.931-.943 2.651 2.651 0 0 1-.338-1.337c0-.502.112-.952.338-1.348.226-.396.536-.71.931-.943.396-.232.84-.346 1.329-.346.498 0 .943.116 1.336.346a2.587 2.587 0 0 1 1.276 2.291c0 .495-.114.94-.344 1.337Zm6.707-4.207c-.498-.286-1.065-.43-1.698-.43s-1.202.144-1.703.43a3.15 3.15 0 0 0-1.188 1.178 3.32 3.32 0 0 0-.433 1.69c0 .62.145 1.18.433 1.68.289.499.685.892 1.188 1.178.502.286 1.07.43 1.703.43s1.199-.144 1.698-.43c.498-.287.892-.68 1.181-1.178a3.298 3.298 0 0 0 .433-1.68 3.32 3.32 0 0 0-.433-1.69 3.161 3.161 0 0 0-1.181-1.178Zm.564 4.207c-.226.396-.534.71-.927.943a2.567 2.567 0 0 1-1.335.347 2.566 2.566 0 0 1-2.267-1.29 2.615 2.615 0 0 1-.345-1.337c0-.502.115-.952.345-1.348a2.566 2.566 0 0 1 2.267-1.29c.498 0 .943.117 1.335.347.393.233.701.547.927.943.226.396.338.843.338 1.337.002.502-.112.95-.338 1.348Zm9.237-4.4c-.051-.11-.148-.165-.29-.165a.337.337 0 0 0-.333.213l-1.647 4.928-1.559-4.858a.47.47 0 0 0-.137-.206.323.323 0 0 0-.219-.077.355.355 0 0 0-.226.077.389.389 0 0 0-.13.206l-1.54 4.945-1.677-5.015a.324.324 0 0 0-.142-.16.376.376 0 0 0-.189-.052c-.119 0-.202.041-.249.125-.048.082-.056.211-.023.383l1.922 5.714a.31.31 0 0 0 .125.165c.06.04.129.06.208.06a.384.384 0 0 0 .196-.053.331.331 0 0 0 .137-.17l1.563-4.99 1.62 4.99c.016.07.054.126.118.165.063.04.136.059.215.059.087 0 .16-.02.219-.06a.315.315 0 0 0 .125-.165l1.911-5.714a.409.409 0 0 0 .002-.345Zm4.553.182c-.452-.272-.97-.406-1.555-.406-.594 0-1.12.14-1.58.424-.458.283-.819.669-1.08 1.16-.26.49-.392 1.059-.392 1.702 0 .636.138 1.2.415 1.697.277.494.66.882 1.146 1.16.486.28 1.042.419 1.669.419.371 0 .762-.076 1.169-.224.407-.15.738-.337.991-.567.079-.07.117-.148.112-.235-.005-.087-.05-.166-.137-.236a.317.317 0 0 0-.231-.077.336.336 0 0 0-.231.1c-.181.173-.428.313-.742.419a2.876 2.876 0 0 1-.931.159c-.492 0-.927-.112-1.306-.336a2.382 2.382 0 0 1-.891-.924 2.697 2.697 0 0 1-.313-1.142h4.98c.102 0 .186-.03.249-.089a.319.319 0 0 0 .095-.242c0-.62-.127-1.168-.379-1.643a2.858 2.858 0 0 0-1.058-1.12Zm-3.592 1.513c.201-.392.478-.7.831-.924a2.198 2.198 0 0 1 1.206-.336c.475 0 .888.112 1.24.336.351.224.623.532.812.924.141.29.225.612.253.966h-4.624c.042-.355.134-.678.282-.966Zm9.231-1.826c-.167-.07-.399-.106-.701-.106-.444 0-.848.11-1.21.33-.335.203-.61.48-.831.825v-.73a.345.345 0 0 0-.096-.258.356.356 0 0 0-.261-.095.356.356 0 0 0-.255.095.333.333 0 0 0-.101.258v5.737a.342.342 0 0 0 .356.354.34.34 0 0 0 .261-.1.355.355 0 0 0 .096-.254v-3.582c0-.37.087-.697.26-.983.175-.286.416-.512.724-.677a2.202 2.202 0 0 1 1.057-.248c.15 0 .287.01.409.03a.74.74 0 0 0 .315-.007c.087-.023.142-.095.166-.212.04-.18-.023-.305-.189-.377Zm11.189.131c-.051-.11-.148-.165-.29-.165a.336.336 0 0 0-.333.213l-1.648 4.928-1.558-4.858a.47.47 0 0 0-.137-.206.324.324 0 0 0-.219-.077.353.353 0 0 0-.226.077.389.389 0 0 0-.13.206l-1.54 4.945-1.677-5.015a.324.324 0 0 0-.142-.16.376.376 0 0 0-.189-.052c-.119 0-.202.041-.249.125-.048.082-.056.211-.024.383l1.923 5.714a.31.31 0 0 0 .125.165c.06.04.129.06.208.06a.384.384 0 0 0 .196-.053.331.331 0 0 0 .137-.17l1.563-4.99 1.62 4.99c.016.07.054.126.118.165.063.04.135.059.215.059.087 0 .16-.02.219-.06a.32.32 0 0 0 .125-.165l1.911-5.714a.409.409 0 0 0 .002-.345Zm4.968.193c-.498-.286-1.065-.43-1.698-.43-.634 0-1.202.144-1.704.43-.495.28-.906.686-1.187 1.178a3.32 3.32 0 0 0-.434 1.69c0 .62.146 1.18.434 1.68.289.499.684.892 1.187 1.178a3.38 3.38 0 0 0 1.704.43c.577 0 1.091-.124 1.543-.371a2.882 2.882 0 0 0 1.057-.982v.93c0 .1.033.186.1.253.068.067.152.1.256.1a.34.34 0 0 0 .261-.1.359.359 0 0 0 .095-.254V53.99a3.32 3.32 0 0 0-.433-1.69 3.176 3.176 0 0 0-1.181-1.179Zm-.361 5.15a2.573 2.573 0 0 1-1.336.347c-.491 0-.935-.117-1.329-.347a2.574 2.574 0 0 1-.938-.943 2.625 2.625 0 0 1-.345-1.337c0-.502.116-.952.345-1.348.224-.39.548-.715.938-.943.396-.232.84-.346 1.329-.346.498 0 .943.116 1.336.346.392.233.701.547.927.943.225.396.338.846.338 1.348 0 .495-.113.941-.338 1.337-.228.396-.536.71-.927.943Zm6.767-2.257c-.345-.188-.813-.322-1.407-.4-.435-.063-.783-.148-1.045-.254-.261-.107-.45-.236-.564-.39a.87.87 0 0 1-.171-.536c0-.298.138-.553.415-.766.277-.213.665-.318 1.164-.318.373 0 .699.066.98.195.28.13.521.32.719.571a.375.375 0 0 0 .474.105c.103-.054.165-.128.185-.218a.287.287 0 0 0-.066-.253 2.502 2.502 0 0 0-.902-.773c-.372-.193-.828-.288-1.365-.288-.444 0-.838.069-1.181.206a1.823 1.823 0 0 0-.813.612c-.197.272-.296.603-.296.995 0 .416.189.782.57 1.097.379.314.966.527 1.758.636.617.087 1.075.23 1.372.43.296.2.445.454.445.76 0 .314-.139.589-.416.825-.277.235-.748.353-1.413.353-.387 0-.745-.052-1.075-.159a1.835 1.835 0 0 1-.837-.56.35.35 0 0 0-.475-.07.33.33 0 0 0-.149.23.326.326 0 0 0 .078.253c.3.354.676.605 1.128.754.451.15.882.224 1.294.224.452 0 .871-.072 1.258-.217.388-.146.701-.355.938-.63.238-.275.356-.597.356-.965 0-.284-.072-.549-.219-.796-.152-.247-.397-.465-.74-.653Zm6.267-2.986a3.331 3.331 0 0 0-1.537-.347c-.506 0-.969.111-1.388.336-.335.178-.63.422-.867.716V48.36a.345.345 0 0 0-.096-.259.355.355 0 0 0-.26-.094.358.358 0 0 0-.256.094.333.333 0 0 0-.101.26v8.493a.342.342 0 0 0 .357.354.34.34 0 0 0 .26-.1.355.355 0 0 0 .096-.254v-3.605c0-.353.099-.67.297-.953.197-.284.466-.505.808-.666a2.66 2.66 0 0 1 1.15-.243c.436 0 .825.085 1.169.254.345.169.617.422.82.76.201.336.303.765.303 1.284v3.17a.342.342 0 0 0 .357.353.348.348 0 0 0 .255-.1.339.339 0 0 0 .101-.254v-3.17c0-.65-.131-1.199-.393-1.642a2.586 2.586 0 0 0-1.075-1.013Zm3.283-.265a.356.356 0 0 0-.255.095.333.333 0 0 0-.101.258v5.737a.342.342 0 0 0 .356.354.34.34 0 0 0 .261-.1.359.359 0 0 0 .095-.254v-5.737a.344.344 0 0 0-.095-.258.35.35 0 0 0-.261-.095Zm6.441.265a3.334 3.334 0 0 0-1.537-.347 2.9 2.9 0 0 0-1.389.336 2.825 2.825 0 0 0-.867.716v-.617a.344.344 0 0 0-.095-.258.358.358 0 0 0-.261-.095.36.36 0 0 0-.256.095.336.336 0 0 0-.1.258v5.737c0 .102.033.187.1.254.068.067.152.1.256.1.11 0 .198-.033.261-.1a.359.359 0 0 0 .095-.254v-3.605c0-.353.099-.67.297-.953.198-.284.467-.505.808-.666.34-.16.724-.243 1.151-.243.435 0 .824.085 1.169.254.344.169.617.422.819.76.202.336.304.765.304 1.284v3.17c0 .1.033.186.1.253.068.067.152.1.256.1a.346.346 0 0 0 .356-.354v-3.17c0-.65-.13-1.199-.392-1.642a2.591 2.591 0 0 0-1.075-1.013Zm7.372.088c-.495-.283-1.067-.423-1.715-.423-.625 0-1.189.14-1.692.423a3.17 3.17 0 0 0-1.194 1.167c-.293.494-.438 1.064-.438 1.708 0 .637.142 1.202.427 1.697.285.494.676.884 1.175 1.167.498.283 1.072.424 1.722.424.57 0 1.072-.12 1.507-.36a2.612 2.612 0 0 0 1.091-1.13v.511c0 .51-.11.972-.333 1.385a2.504 2.504 0 0 1-.908.972 2.458 2.458 0 0 1-1.313.353c-.514 0-.961-.096-1.342-.288a2.975 2.975 0 0 1-.938-.725.336.336 0 0 0-.244-.154.348.348 0 0 0-.279.07.248.248 0 0 0-.118.213c0 .087.031.169.095.248.3.376.683.687 1.146.93.463.244 1.022.365 1.68.365.625 0 1.184-.147 1.674-.441a3.2 3.2 0 0 0 1.164-1.208c.285-.51.427-1.083.427-1.72v-2.309c0-.643-.142-1.214-.427-1.708a3.093 3.093 0 0 0-1.167-1.167Zm.552 4.235a2.402 2.402 0 0 1-.92.931 2.664 2.664 0 0 1-1.347.336c-.506 0-.958-.111-1.354-.336a2.4 2.4 0 0 1-.927-.93 2.76 2.76 0 0 1-.333-1.362c0-.519.111-.976.333-1.373.221-.396.53-.707.927-.931a2.696 2.696 0 0 1 1.354-.336c.506 0 .956.112 1.347.336.392.224.699.535.92.93.221.397.333.855.333 1.374-.002.512-.112.965-.333 1.361Zm9.217-4.323a3.331 3.331 0 0 0-1.537-.347c-.506 0-.969.111-1.388.336-.335.178-.63.422-.867.716v-.617a.345.345 0 0 0-.096-.258.354.354 0 0 0-.26-.095.358.358 0 0 0-.256.095.332.332 0 0 0-.1.258v5.737a.34.34 0 0 0 .356.354c.11 0 .198-.033.26-.1a.355.355 0 0 0 .096-.254v-3.605c0-.353.099-.67.297-.953.197-.284.466-.505.808-.666a2.66 2.66 0 0 1 1.15-.243c.436 0 .825.085 1.17.254.344.169.616.422.819.76.201.336.303.765.303 1.284v3.17a.342.342 0 0 0 .357.353.346.346 0 0 0 .356-.354v-3.17c0-.65-.131-1.199-.393-1.642a2.574 2.574 0 0 0-1.075-1.013Zm6.94.082c-.451-.272-.969-.406-1.555-.406-.593 0-1.119.14-1.579.424-.459.283-.82.669-1.08 1.16-.261.49-.393 1.059-.393 1.702 0 .636.139 1.2.416 1.697a3 3 0 0 0 1.146 1.16c.486.28 1.042.419 1.668.419.372 0 .762-.076 1.17-.224.407-.15.738-.337.991-.567.079-.07.117-.148.112-.235-.005-.087-.05-.166-.137-.236a.317.317 0 0 0-.231-.077.336.336 0 0 0-.231.1c-.181.173-.429.313-.742.419a2.877 2.877 0 0 1-.932.159c-.491 0-.926-.112-1.305-.336a2.375 2.375 0 0 1-.891-.924 2.697 2.697 0 0 1-.313-1.142h4.98c.102 0 .186-.03.248-.089a.316.316 0 0 0 .096-.242c0-.62-.127-1.168-.379-1.643a2.875 2.875 0 0 0-1.059-1.12Zm-3.591 1.513c.201-.392.478-.7.831-.924a2.197 2.197 0 0 1 1.205-.336c.475 0 .889.112 1.24.336.352.224.624.532.813.924.14.29.225.612.253.966h-4.624c.04-.355.134-.678.282-.966Zm9.788-1.513c-.452-.272-.97-.406-1.555-.406-.594 0-1.12.14-1.58.424-.458.283-.819.669-1.08 1.16-.26.49-.392 1.059-.392 1.702 0 .636.138 1.2.415 1.697.277.494.66.882 1.146 1.16.487.28 1.042.419 1.669.419.371 0 .762-.076 1.169-.224.407-.15.739-.337.991-.567.079-.07.117-.148.112-.235-.005-.087-.049-.166-.137-.236a.316.316 0 0 0-.231-.077.334.334 0 0 0-.23.1c-.182.173-.429.313-.742.419a2.886 2.886 0 0 1-.932.159c-.491 0-.927-.112-1.306-.336a2.372 2.372 0 0 1-.89-.924 2.698 2.698 0 0 1-.314-1.142h4.98c.102 0 .186-.03.249-.089a.316.316 0 0 0 .096-.242c0-.62-.127-1.168-.38-1.643a2.851 2.851 0 0 0-1.058-1.12Zm-3.591 1.513c.201-.392.478-.7.831-.924a2.192 2.192 0 0 1 1.205-.336c.475 0 .889.112 1.24.336.351.224.623.532.813.924.14.29.224.612.252.966h-4.623c.041-.355.133-.678.282-.966Zm11.462-4.617a.356.356 0 0 0-.255.094.333.333 0 0 0-.101.26v3.674a2.737 2.737 0 0 0-1.062-.978 3.2 3.2 0 0 0-1.536-.365c-.633 0-1.202.144-1.704.43a3.172 3.172 0 0 0-1.187 1.172c-.288.494-.433 1.057-.433 1.685 0 .629.145 1.192.433 1.69.289.5.685.892 1.187 1.179.503.286 1.071.43 1.704.43.625 0 1.185-.14 1.68-.424a3.215 3.215 0 0 0 1.632-2.805v-5.69a.344.344 0 0 0-.095-.26.363.363 0 0 0-.263-.092Zm-.694 7.322a2.54 2.54 0 0 1-.926.943 2.573 2.573 0 0 1-1.336.347 2.566 2.566 0 0 1-2.267-1.29 2.646 2.646 0 0 1-.345-1.348c0-.502.116-.95.345-1.343a2.575 2.575 0 0 1 2.267-1.283c.498 0 .943.116 1.336.346.392.233.7.544.926.936.226.393.338.842.338 1.344 0 .502-.113.95-.338 1.348Zm6.197-1.314c-.345-.188-.813-.322-1.407-.4-.435-.063-.783-.148-1.045-.254-.261-.107-.45-.236-.564-.39a.87.87 0 0 1-.172-.536c0-.298.139-.553.416-.766.277-.213.664-.318 1.164-.318.373 0 .699.066.98.195.28.13.521.32.718.571a.375.375 0 0 0 .475.105c.103-.054.165-.128.185-.218a.287.287 0 0 0-.066-.253 2.502 2.502 0 0 0-.902-.773c-.373-.193-.828-.288-1.365-.288-.444 0-.838.069-1.181.206a1.823 1.823 0 0 0-.813.612c-.198.272-.296.603-.296.995 0 .416.189.782.57 1.097.379.314.966.527 1.758.636.616.087 1.075.23 1.372.43.296.2.445.454.445.76 0 .314-.139.589-.416.825-.277.235-.748.353-1.413.353-.387 0-.745-.052-1.075-.159a1.835 1.835 0 0 1-.837-.56.352.352 0 0 0-.475-.07.33.33 0 0 0-.149.23.323.323 0 0 0 .078.253c.3.354.676.605 1.128.754.451.15.882.224 1.294.224.452 0 .871-.072 1.258-.217.388-.146.701-.355.938-.63.238-.275.356-.597.356-.965 0-.284-.072-.549-.219-.796-.15-.247-.396-.465-.74-.653Z" fill="#686868"></path></g><defs><clipPath id="a"><path fill="#fff" d="M0 0h288v60H0z"></path></clipPath></defs></svg>